{"accessors" : [{"bufferView" : 0, "byteOffset" : 0, "componentType" : 5123, "count" : 23196, "type" : "SCALAR", "max" : [23195], "min" : [0]}, {"bufferView" : 1, "byteOffset" : 0, "componentType" : 5126, "count" : 23196, "type" : "VEC3", "max" : [81.76734924316406, 185.646240234375, 28.599990844726562], "min" : [-81.76713562011719, -0.4301501512527466, -30.36829948425293], "name" : "POSITION"}, {"bufferView" : 1, "byteOffset" : 12, "componentType" : 5126, "count" : 23196, "type" : "VEC3", "max" : [0.9997275471687317, 0.9999862313270569, 1.0000044107437134], "min" : [-0.9996185302734375, -0.99997878074646, -0.9998738169670105], "name" : "NORMAL"}, {"bufferView" : 1, "byteOffset" : 24, "componentType" : 5126, "count" : 23196, "type" : "VEC2", "max" : [0.9984745979309082, -0.0035000001080334187], "min" : [0.0018090144731104374, -0.9974502325057983], "name" : "TEXCOORD_0"}, {"bufferView" : 1, "byteOffset" : 32, "componentType" : 5126, "count" : 23196, "type" : "VEC2", "max" : [0.9984745979309082, -0.0035000001080334187], "min" : [0.0018090144731104374, -0.9974502325057983], "name" : "TEXCOORD_1"}, {"bufferView" : 1, "byteOffset" : 40, "componentType" : 5126, "count" : 23196, "type" : "VEC2", "max" : [0.9984745979309082, -0.0035000001080334187], "min" : [0.0018090144731104374, -0.9974502325057983], "name" : "TEXCOORD_2"}, {"bufferView" : 1, "byteOffset" : 48, "componentType" : 5126, "count" : 23196, "type" : "VEC2", "max" : [0.9984745979309082, -0.0035000001080334187], "min" : [0.0018090144731104374, -0.9974502325057983], "name" : "TEXCOORD_3"}, {"bufferView" : 1, "byteOffset" : 56, "componentType" : 5126, "count" : 23196, "type" : "VEC2", "max" : [0.9984745979309082, -0.0035000001080334187], "min" : [0.0018090144731104374, -0.9974502325057983], "name" : "TEXCOORD_4"}, {"bufferView" : 0, "byteOffset" : 46392, "componentType" : 5123, "count" : 204, "type" : "SCALAR", "max" : [159], "min" : [0]}, {"bufferView" : 2, "byteOffset" : 0, "componentType" : 5126, "count" : 160, "type" : "VEC3", "max" : [12.122973442077637, 152.9000701904297, 26.146163940429688], "min" : [-12.122986793518066, 140.3844451904297, 17.76230239868164], "name" : "POSITION"}, {"bufferView" : 2, "byteOffset" : 12, "componentType" : 5126, "count" : 160, "type" : "VEC3", "max" : [0.7893622517585754, -0.07650913298130035, 0.9641969799995422], "min" : [-0.7893286943435669, -0.523281455039978, 0.516602098941803], "name" : "NORMAL"}, {"bufferView" : 2, "byteOffset" : 24, "componentType" : 5126, "count" : 160, "type" : "VEC2", "max" : [0.7038609981536865, -0.9235299825668335], "min" : [0.5939120054244995, -0.9837989807128906], "name" : "TEXCOORD_0"}, {"bufferView" : 2, "byteOffset" : 32, "componentType" : 5126, "count" : 160, "type" : "VEC2", "max" : [0.7038609981536865, -0.9235299825668335], "min" : [0.5939120054244995, -0.9837989807128906], "name" : "TEXCOORD_1"}, {"bufferView" : 2, "byteOffset" : 40, "componentType" : 5126, "count" : 160, "type" : "VEC2", "max" : [0.7038609981536865, -0.9235299825668335], "min" : [0.5939120054244995, -0.9837989807128906], "name" : "TEXCOORD_2"}, {"bufferView" : 0, "byteOffset" : 46800, "componentType" : 5123, "count" : 456, "type" : "SCALAR", "max" : [368], "min" : [0]}, {"bufferView" : 3, "byteOffset" : 0, "componentType" : 5126, "count" : 369, "type" : "VEC3", "max" : [14.44411563873291, 165.52352905273438, 26.181306838989258], "min" : [-14.444117546081543, 151.30506896972656, 16.49273109436035], "name" : "POSITION"}, {"bufferView" : 3, "byteOffset" : 12, "componentType" : 5126, "count" : 369, "type" : "VEC3", "max" : [0.8569730520248413, 0.6286745071411133, 0.9993525147438049], "min" : [-0.8569731712341309, -0.2668420672416687, 0.4501780867576599], "name" : "NORMAL"}, {"bufferView" : 3, "byteOffset" : 24, "componentType" : 5126, "count" : 369, "type" : "VEC2", "max" : [0.19856999814510345, -0.9013328552246094], "min" : [0.0011859999503940344, -0.997968852519989], "name" : "TEXCOORD_0"}, {"bufferView" : 3, "byteOffset" : 32, "componentType" : 5126, "count" : 369, "type" : "VEC2", "max" : [0.19856999814510345, -0.9013328552246094], "min" : [0.0011859999503940344, -0.997968852519989], "name" : "TEXCOORD_1"}, {"bufferView" : 3, "byteOffset" : 40, "componentType" : 5126, "count" : 369, "type" : "VEC2", "max" : [0.19856999814510345, -0.9013328552246094], "min" : [0.0011859999503940344, -0.997968852519989], "name" : "TEXCOORD_2"}, {"bufferView" : 0, "byteOffset" : 47712, "componentType" : 5123, "count" : 306, "type" : "SCALAR", "max" : [251], "min" : [0]}, {"bufferView" : 4, "byteOffset" : 0, "componentType" : 5126, "count" : 252, "type" : "VEC3", "max" : [15.205982208251953, 172.8410186767578, 26.010862350463867], "min" : [-15.205953598022461, 158.85494995117188, 13.505616188049316], "name" : "POSITION"}, {"bufferView" : 4, "byteOffset" : 12, "componentType" : 5126, "count" : 252, "type" : "VEC3", "max" : [0.8802742958068848, 0.46747997403144836, 0.9995344877243042], "min" : [-0.8802780508995056, -0.282626211643219, 0.45391711592674255], "name" : "NORMAL"}, {"bufferView" : 4, "byteOffset" : 24, "componentType" : 5126, "count" : 252, "type" : "VEC2", "max" : [0.9978939890861511, -0.9002540111541748], "min" : [0.9027469754219055, -0.9996079802513123], "name" : "TEXCOORD_0"}, {"bufferView" : 4, "byteOffset" : 32, "componentType" : 5126, "count" : 252, "type" : "VEC2", "max" : [0.9978939890861511, -0.9002540111541748], "min" : [0.9027469754219055, -0.9996079802513123], "name" : "TEXCOORD_1"}, {"bufferView" : 4, "byteOffset" : 40, "componentType" : 5126, "count" : 252, "type" : "VEC2", "max" : [0.9978939890861511, -0.9002540111541748], "min" : [0.9027469754219055, -0.9996079802513123], "name" : "TEXCOORD_2"}], "asset" : {"generator" : "Aspose.3D 22.5.1", "version" : "2.0"}, "buffers" : [{"uri" : "data:application/octet-stream;base64,", "byteLength" : 1579256}], "bufferViews" : [{"buffer" : 0, "byteOffset" : 0, "byteLength" : 48324, "target" : 34963}, {"buffer" : 0, "byteOffset" : 48328, "byteLength" : 1484544, "byteStride" : 64, "target" : 34962}, {"buffer" : 0, "byteOffset" : 1532876, "byteLength" : 9792, "byteStride" : 48, "target" : 34962}, {"buffer" : 0, "byteOffset" : 1542672, "byteLength" : 21888, "byteStride" : 48, "target" : 34962}, {"buffer" : 0, "byteOffset" : 1564564, "byteLength" : 14688, "byteStride" : 48, "target" : 34962}], "materials" : [{"name" : "Boy01_Body_MAT", "pbrMetallicRoughness" : {"baseColorFactor" : [1, 1, 1, 1], "metallicFactor" : 0, "roughnessFactor" : 0}, "emissiveFactor" : [0, 0, 0], "alphaMode" : "OPAQUE", "doubleSided" : false}, {"name" : "Boy01_Mouth_MAT1", "pbrMetallicRoughness" : {"baseColorFactor" : [1, 1, 1, 1], "metallicFactor" : 0, "roughnessFactor" : 0}, "emissiveFactor" : [0, 0, 0], "alphaMode" : "OPAQUE", "doubleSided" : false}, {"name" : "Boy01_Eyes_MAT1", "pbrMetallicRoughness" : {"baseColorFactor" : [1, 1, 1, 1], "metallicFactor" : 0, "roughnessFactor" : 0}, "emissiveFactor" : [0, 0, 0], "alphaMode" : "OPAQUE", "doubleSided" : false}, {"name" : "Boy01_Brows_MAT1", "pbrMetallicRoughness" : {"baseColorFactor" : [1, 1, 1, 1], "metallicFactor" : 0, "roughnessFactor" : 0}, "emissiveFactor" : [0, 0, 0], "alphaMode" : "OPAQUE", "doubleSided" : false}], "meshes" : [{"primitives" : [{"attributes" : {"POSITION" : 1, "NORMAL" : 2, "TEXCOORD_0" : 3, "TEXCOORD_1" : 4, "TEXCOORD_2" : 5, "TEXCOORD_3" : 6, "TEXCOORD_4" : 7}, "indices" : 0, "material" : 0, "mode" : 4}], "name" : "Boy01_Body_Geo_ncl1_1"}, {"primitives" : [{"attributes" : {"POSITION" : 9, "NORMAL" : 10, "TEXCOORD_0" : 11, "TEXCOORD_1" : 12, "TEXCOORD_2" : 13}, "indices" : 8, "material" : 1, "mode" : 4}], "name" : "h_Geo_ncl1_1"}, {"primitives" : [{"attributes" : {"POSITION" : 15, "NORMAL" : 16, "TEXCOORD_0" : 17, "TEXCOORD_1" : 18, "TEXCOORD_2" : 19}, "indices" : 14, "material" : 2, "mode" : 4}], "name" : "Boy01_Eyes_Geo_ncl1_1"}, {"primitives" : [{"attributes" : {"POSITION" : 21, "NORMAL" : 22, "TEXCOORD_0" : 23, "TEXCOORD_1" : 24, "TEXCOORD_2" : 25}, "indices" : 20, "material" : 3, "mode" : 4}], "name" : "Boy01_Brows_Geo_ncl1_1"}], "nodes" : [{"mesh" : 0, "name" : "Boy01_Body_Geo"}, {"mesh" : 1, "name" : "h_Geo"}, {"mesh" : 2, "name" : "Boy01_Eyes_Geo"}, {"mesh" : 3, "name" : "Boy01_Brows_Geo"}], "scene" : 0, "scenes" : [{"nodes" : [0, 1, 2, 3]}]}